<?xml version="1.0" encoding="iso-8859-1"?>
<!-- Generator: Adobe Illustrator 19.0.0, SVG Export Plug-In . SVG Version: 6.00 Build 0)  -->
<svg version="1.1" id="Layer_1" xmlns="http://www.w3.org/2000/svg" xmlns:xlink="http://www.w3.org/1999/xlink" x="0px" y="0px"
	 viewBox="0 0 512 512" style="enable-background:new 0 0 512 512;" xml:space="preserve">
<g>
	<g>
		<g>
			<path d="M502.11,221.442l-33.552-12.212l1.065-2.926c0.023-0.062,0.037-0.126,0.058-0.188l37.841-26.49
				c3.208-2.246,4.9-6.091,4.389-9.973c-0.51-3.882-3.139-7.159-6.82-8.498L181.31,43.307c-5.772-2.1-12.016-1.828-17.582,0.768
				c-5.567,2.596-9.788,7.204-11.89,12.975l-48.683,133.756c-2.1,5.772-1.828,12.016,0.768,17.582
				c2.596,5.567,7.204,9.788,12.975,11.89l94.575,34.423l-34.325,69.235c-9.272,2.093-17.394,7.251-23.229,14.363h-43.654v-30.979
				c0-5.8-4.702-10.501-10.502-10.501H61.649c-3.807-12.156-15.174-21.003-28.569-21.003H10.501c-5.8,0-10.501,4.702-10.501,10.502
				V459.59c0,5.8,4.702,10.501,10.501,10.501H33.08c13.396,0,24.763-8.846,28.569-21.003h38.115c5.8,0,10.502-4.701,10.502-10.501
				v-37.28h55.22c6.164,3.555,13.303,5.6,20.916,5.6c23.162,0,42.006-18.844,42.006-42.006c0-1.292-0.067-2.569-0.183-3.831
				l42.602-84.768l143.176,52.112c1.161,0.423,2.378,0.633,3.592,0.633c1.518,0,3.035-0.33,4.439-0.984
				c2.523-1.177,4.478-3.308,5.429-5.926l10.566-29.03l33.551,12.212c1.161,0.423,2.378,0.633,3.592,0.633
				c1.518,0,3.035-0.33,4.439-0.984c2.523-1.177,4.478-3.308,5.429-5.926l23.346-64.143
				C510.37,229.451,507.56,223.425,502.11,221.442z M42.006,307.319v131.269v1.575c0,4.922-4.004,8.926-8.926,8.926H21.003V296.817
				H33.08c4.922,0,8.926,4.004,8.926,8.926V307.319z M89.263,428.086H63.009V317.82h26.254V428.086z M110.266,380.304v-21.003
				h34.514c-0.246,1.834-0.384,3.701-0.384,5.6c0,5.437,1.049,10.63,2.937,15.403H110.266z M186.401,385.904
				c-11.581,0-21.003-9.422-21.003-21.003s9.422-21.003,21.003-21.003c11.581,0,21.003,9.422,21.003,21.003
				S197.982,385.904,186.401,385.904z M217.154,336.328c-4.669-5.022-10.549-8.897-17.17-11.166l31.35-63.234l19.623,7.142
				L217.154,336.328z M426.901,262.278l-15.582,42.809L124.082,200.542c-0.641-0.233-0.964-0.689-1.124-1.029
				c-0.159-0.34-0.299-0.881-0.066-1.522l8.06-22.142l62.518,22.755c5.448,1.983,11.476-0.825,13.46-6.277
				c1.984-5.45-0.826-11.476-6.277-13.46l-62.519-22.755l33.441-91.876c0.233-0.641,0.689-0.965,1.029-1.124
				s0.881-0.299,1.522-0.066l304.821,110.945l-99.78,69.85l-95.075-34.604c-5.448-1.985-11.477,0.826-13.459,6.277
				c-1.985,5.45,0.825,11.476,6.277,13.46l100.211,36.474c1.166,0.424,2.382,0.633,3.59,0.633c2.127,0,4.234-0.646,6.024-1.899
				l52.966-37.079L426.901,262.278z M468.896,281.992l-23.683-8.62l16.162-44.407l23.684,8.62L468.896,281.992z"/>
			<path d="M245.15,195.061l-1.529-0.557c-5.45-1.984-11.476,0.826-13.46,6.277c-1.984,5.45,0.826,11.476,6.277,13.46l1.529,0.557
				c1.186,0.432,2.398,0.636,3.59,0.636c4.289,0,8.317-2.648,9.869-6.913C253.41,203.071,250.6,197.045,245.15,195.061z"/>
		</g>
	</g>
</g>
<g>
</g>
<g>
</g>
<g>
</g>
<g>
</g>
<g>
</g>
<g>
</g>
<g>
</g>
<g>
</g>
<g>
</g>
<g>
</g>
<g>
</g>
<g>
</g>
<g>
</g>
<g>
</g>
<g>
</g>
</svg>
